<svg width="300" height="300" xmlns="http://www.w3.org/2000/svg">
  <circle cx="150" cy="150" r="30.0" fill="none" stroke="#ddd" stroke-width="1"/><circle cx="150" cy="150" r="60.0" fill="none" stroke="#ddd" stroke-width="1"/><circle cx="150" cy="150" r="90.0" fill="none" stroke="#ddd" stroke-width="1"/><circle cx="150" cy="150" r="120.0" fill="none" stroke="#ddd" stroke-width="1"/><line x1="150" y1="150" x2="150.0" y2="30.0" stroke="#ddd" stroke-width="1"/><text x="150.0" y="5.0" text-anchor="middle" dominant-baseline="middle" font-size="12" fill="#333">Prompt</text><line x1="150" y1="150" x2="264.12678195541844" y2="112.91796067500631" stroke="#ddd" stroke-width="1"/><text x="287.90319486279725" y="105.19253581563262" text-anchor="middle" dominant-baseline="middle" font-size="12" fill="#333">Coding</text><line x1="150" y1="150" x2="220.53423027509677" y2="247.0820393249937" stroke="#ddd" stroke-width="1"/><text x="235.2288615824086" y="267.3074641843674" text-anchor="middle" dominant-baseline="middle" font-size="12" fill="#333">Docs</text><line x1="150" y1="150" x2="79.46576972490324" y2="247.0820393249937" stroke="#ddd" stroke-width="1"/><text x="64.77113841759142" y="267.3074641843674" text-anchor="middle" dominant-baseline="middle" font-size="12" fill="#333">Collab</text><line x1="150" y1="150" x2="35.87321804458156" y2="112.91796067500633" stroke="#ddd" stroke-width="1"/><text x="12.096805137202722" y="105.19253581563265" text-anchor="middle" dominant-baseline="middle" font-size="12" fill="#333">Auto</text><polygon points="150.0,150.0 150.0,150.0 150.0,150.0 150.0,150.0 150.0,150.0" fill="rgba(102,126,234,0.3)" stroke="#667eea" stroke-width="2"/><circle cx="150.0" cy="150.0" r="4" fill="#667eea"/><text x="150.0" y="140.0" text-anchor="middle" font-size="11" fill="#667eea">0</text><circle cx="150.0" cy="150.0" r="4" fill="#667eea"/><text x="150.0" y="140.0" text-anchor="middle" font-size="11" fill="#667eea">0</text><circle cx="150.0" cy="150.0" r="4" fill="#667eea"/><text x="150.0" y="140.0" text-anchor="middle" font-size="11" fill="#667eea">0</text><circle cx="150.0" cy="150.0" r="4" fill="#667eea"/><text x="150.0" y="140.0" text-anchor="middle" font-size="11" fill="#667eea">0</text><circle cx="150.0" cy="150.0" r="4" fill="#667eea"/><text x="150.0" y="140.0" text-anchor="middle" font-size="11" fill="#667eea">0</text>
</svg>